# This file uses centimeters as units for non-parametric coordinates.

mtllib comp_sep_1.mtl
g default
v -0.250000 -0.100000 7.750000
v 7.750000 -0.100000 7.750000
v -0.250000 0.100000 7.750000
v 7.750000 0.100000 7.750000
v -0.250000 0.100000 -0.250000
v 7.750000 0.100000 -0.250000
v -0.250000 -0.100000 -0.250000
v 7.750000 -0.100000 -0.250000
vt 0.019985 0.001992
vt 0.516153 0.001992
vt 0.516153 0.498160
vt 0.019985 0.498160
vt 0.920125 0.998008
vt 0.423957 0.998008
vt 0.423957 0.501840
vt 0.920125 0.501840
vt 0.405897 0.998008
vt 0.405897 0.501840
vt 0.418301 0.501840
vt 0.418301 0.998008
vt 0.400240 0.501840
vt 0.400240 0.998008
vt 0.387836 0.998008
vt 0.387836 0.501840
vt 0.001837 0.498160
vt 0.001837 0.001992
vt 0.014241 0.001992
vt 0.014241 0.498160
vt 0.523106 0.498160
vt 0.523106 0.001992
vt 0.535510 0.001992
vt 0.535510 0.498160
vn 0.000000 0.000000 1.000000
vn 0.000000 0.000000 1.000000
vn 0.000000 0.000000 1.000000
vn 0.000000 0.000000 1.000000
vn 0.000000 1.000000 0.000000
vn 0.000000 1.000000 0.000000
vn 0.000000 1.000000 0.000000
vn 0.000000 1.000000 0.000000
vn 0.000000 0.000000 -1.000000
vn 0.000000 0.000000 -1.000000
vn 0.000000 0.000000 -1.000000
vn 0.000000 0.000000 -1.000000
vn 0.000000 -1.000000 0.000000
vn 0.000000 -1.000000 0.000000
vn 0.000000 -1.000000 0.000000
vn 0.000000 -1.000000 0.000000
vn 1.000000 0.000000 0.000000
vn 1.000000 0.000000 0.000000
vn 1.000000 0.000000 0.000000
vn 1.000000 0.000000 0.000000
vn -1.000000 0.000000 0.000000
vn -1.000000 0.000000 0.000000
vn -1.000000 0.000000 0.000000
vn -1.000000 0.000000 0.000000
s off
g pCube5
usemtl initialShadingGroup
f 1/17/1 2/18/2 4/19/3 3/20/4
f 3/1/5 4/2/6 6/3/7 5/4/8
f 5/21/9 6/22/10 8/23/11 7/24/12
f 7/5/13 8/6/14 2/7/15 1/8/16
f 2/9/17 8/10/18 6/11/19 4/12/20
f 7/13/21 1/14/22 3/15/23 5/16/24
