# This file uses centimeters as units for non-parametric coordinates.

mtllib comp_window_2.mtl
g default
v -0.100000 0.500000 0.200000
v 1.100000 0.500000 0.200000
v -0.100000 2.500000 0.200000
v 1.100000 2.500000 0.200000
v -0.100000 2.500000 -0.000000
v 1.100000 2.500000 -0.000000
v -0.100000 0.500000 -0.000000
v 1.100000 0.500000 -0.000000
v -0.100000 0.600000 0.200000
v 1.100000 0.600000 0.200000
v 1.000000 2.400000 0.200000
v 0.000000 2.400000 0.200000
v 0.000000 0.600000 0.087477
v 1.000000 0.600000 0.087477
v 1.000000 2.400000 0.087477
v 0.000000 2.400000 0.087477
v -0.100000 0.500000 0.810207
v 1.100000 0.500000 0.810207
v 1.100000 0.600000 0.810207
v -0.100000 0.600000 0.810207
vt 0.571872 0.841350
vt 0.571872 0.528033
vt 0.624092 0.528033
vt 0.624092 0.841350
vt 0.354417 0.841350
vt 0.354417 0.528033
vt 0.406637 0.528033
vt 0.406637 0.841350
vt 0.565960 0.528033
vt 0.565960 0.841350
vt 0.287104 0.841350
vt 0.287104 0.528033
vt 0.316484 0.554143
vt 0.316484 0.815240
vt 0.127781 0.841350
vt 0.127781 0.528033
vt 0.121869 0.528033
vt 0.121869 0.789130
vt 0.092489 0.789130
vt 0.092489 0.528033
vt 0.321370 0.001992
vt 0.373590 0.001992
vt 0.373590 0.524187
vt 0.321370 0.524187
vt 0.379589 0.001992
vt 0.431808 0.001992
vt 0.431808 0.524187
vt 0.379589 0.524187
vt 0.694674 0.528033
vt 0.694674 0.998008
vt 0.665295 0.998008
vt 0.665295 0.528033
vt 0.630004 0.998008
vt 0.630004 0.528033
vt 0.659383 0.528033
vt 0.659383 0.998008
vt 0.060468 0.528033
vt 0.086577 0.528033
vt 0.086577 0.687356
vt 0.060468 0.687356
vt 0.028446 0.528033
vt 0.054556 0.528033
vt 0.054556 0.687356
vt 0.028446 0.687356
vt 0.700586 0.528033
vt 0.961684 0.528033
vt 0.961684 0.998008
vt 0.700586 0.998008
vt 0.315236 0.524187
vt 0.001920 0.524187
vt 0.001920 0.001992
vt 0.315236 0.001992
vt 0.322396 0.841350
vt 0.322396 0.528033
vt 0.348505 0.528033
vt 0.348505 0.841350
vt 0.751124 0.001992
vt 0.751124 0.524187
vt 0.725014 0.498077
vt 0.751124 0.028102
vt 0.437807 0.524187
vt 0.463917 0.498077
vt 0.437807 0.001992
vt 0.437807 0.028102
vn 0.000000 0.000000 1.000000
vn 0.000000 0.000000 1.000000
vn 0.000000 0.000000 1.000000
vn 0.000000 0.000000 1.000000
vn 0.000000 1.000000 0.000000
vn 0.000000 1.000000 0.000000
vn 0.000000 1.000000 0.000000
vn 0.000000 1.000000 0.000000
vn 0.000000 0.000000 -1.000000
vn 0.000000 0.000000 -1.000000
vn 0.000000 0.000000 -1.000000
vn 0.000000 0.000000 -1.000000
vn 0.000000 -1.000000 0.000000
vn 0.000000 -1.000000 0.000000
vn 0.000000 -1.000000 0.000000
vn 0.000000 -1.000000 0.000000
vn 1.000000 0.000000 0.000000
vn 1.000000 0.000000 0.000000
vn 1.000000 0.000000 0.000000
vn 1.000000 0.000000 0.000000
vn -1.000000 0.000000 0.000000
vn -1.000000 0.000000 0.000000
vn -1.000000 0.000000 0.000000
vn -1.000000 0.000000 0.000000
vn 0.000000 0.000000 1.000000
vn 0.000000 0.000000 1.000000
vn 0.000000 0.000000 1.000000
vn 0.000000 0.000000 1.000000
vn -0.000000 -0.000000 0.000000
vn -0.000000 -0.000000 1.000000
vn -0.000000 -0.000000 1.000000
vn -0.000000 -0.000000 1.000000
vn 0.000000 -0.000000 1.000000
vn 0.000000 -0.000000 1.000000
vn 0.000000 -0.000000 0.000000
vn 0.000000 -0.000000 1.000000
vn 0.000000 1.000000 0.000000
vn 0.000000 1.000000 0.000000
vn 0.000000 1.000000 0.000000
vn 0.000000 1.000000 0.000000
vn -0.913547 -0.025376 0.405940
vn -0.913547 -0.025376 0.405940
vn -0.913547 -0.025376 0.405940
vn -0.913547 -0.025376 0.405940
vn 0.000000 -1.000000 0.000000
vn 0.000000 -1.000000 0.000000
vn 0.000000 -1.000000 0.000000
vn 0.000000 -1.000000 0.000000
vn 0.913547 -0.025376 0.405940
vn 0.913547 -0.025376 0.405940
vn 0.913547 -0.025376 0.405940
vn 0.913547 -0.025376 0.405940
vn 0.000000 -1.000000 0.000000
vn 0.000000 -1.000000 0.000000
vn 1.000000 0.000000 0.000000
vn 1.000000 0.000000 0.000000
vn 1.000000 0.000000 0.000000
vn 1.000000 0.000000 0.000000
vn 0.000000 1.000000 0.000000
vn 0.000000 1.000000 0.000000
vn -1.000000 0.000000 0.000000
vn -1.000000 0.000000 0.000000
vn -1.000000 0.000000 0.000000
vn -1.000000 0.000000 0.000000
s off
g pCube2
usemtl initialShadingGroup
f 13/45/1 14/46/2 15/47/3 16/48/4
f 3/1/5 4/2/6 6/3/7 5/4/8
f 5/49/9 6/50/10 8/51/11 7/52/12
s 1
f 7/5/13 8/6/14 2/7/15 1/8/16
s off
f 2/21/17 8/22/18 6/23/19 4/24/20
f 7/25/21 1/26/22 3/27/23 5/28/24
f 17/53/25 18/54/26 19/55/27 20/56/28
s 2
f 2/57/29 4/58/30 11/59/31 10/60/32
f 4/58/30 3/61/33 12/62/34 11/59/31
f 3/61/33 1/63/35 9/64/36 12/62/34
s 3
f 9/11/37 10/12/38 14/13/39 13/14/40
s off
f 10/29/41 11/30/42 15/31/43 14/32/44
f 11/17/45 12/18/46 16/19/47 15/20/48
f 12/33/49 9/34/50 13/35/51 16/36/52
s 1
f 1/8/16 2/7/15 18/9/53 17/10/54
s off
f 2/37/55 10/38/56 19/39/57 18/40/58
s 3
f 10/12/38 9/11/37 20/15/59 19/16/60
s off
f 9/41/61 1/42/62 17/43/63 20/44/64
