# This file uses centimeters as units for non-parametric coordinates.

mtllib comp_window_3.mtl
g default
v -0.104517 0.500000 0.202728
v 1.895483 0.500000 0.202728
v -0.104517 2.500000 0.202728
v 1.895483 2.500000 0.202728
v -0.104517 2.500000 0.002728
v 1.895483 2.500000 0.002728
v -0.104517 0.500000 0.002728
v 1.895483 0.500000 0.002728
v -0.004517 0.600000 0.202728
v 1.795483 0.600000 0.202728
v 1.795483 2.400000 0.202728
v -0.004517 2.400000 0.202728
v -0.013469 0.600000 0.066689
v 1.786531 0.600000 0.066689
v 1.786531 2.400000 0.066689
v -0.013469 2.400000 0.066689
vt 0.001992 0.429856
vt 0.001992 0.001721
vt 0.044806 0.001721
vt 0.044806 0.429856
vt 0.487476 0.429856
vt 0.487476 0.001721
vt 0.530290 0.001721
vt 0.530290 0.429856
vt 0.534616 0.819169
vt 0.534616 0.433848
vt 0.563737 0.435764
vt 0.563737 0.821086
vt 0.528480 0.433847
vt 0.528480 0.819169
vt 0.499359 0.821086
vt 0.499359 0.435764
vt 0.538149 0.001721
vt 0.580962 0.001721
vt 0.580962 0.429856
vt 0.538149 0.429856
vt 0.588822 0.001721
vt 0.631635 0.001721
vt 0.631635 0.429856
vt 0.588822 0.429856
vt 0.101766 0.433848
vt 0.101766 0.819169
vt 0.072645 0.819169
vt 0.072645 0.433848
vt 0.037388 0.819169
vt 0.037388 0.433848
vt 0.066510 0.433848
vt 0.066510 0.819169
vt 0.107902 0.433848
vt 0.493224 0.433848
vt 0.493224 0.819169
vt 0.107902 0.819169
vt 0.480995 0.429856
vt 0.052860 0.429856
vt 0.052860 0.001721
vt 0.480995 0.001721
vt 0.569873 0.433848
vt 0.998008 0.433848
vt 0.976601 0.455254
vt 0.591279 0.455254
vt 0.998008 0.861983
vt 0.976601 0.840576
vt 0.569873 0.861983
vt 0.591279 0.840576
vn 0.000000 0.000000 1.000000
vn 0.000000 0.000000 1.000000
vn 0.000000 0.000000 1.000000
vn 0.000000 0.000000 1.000000
vn 0.000000 1.000000 0.000000
vn 0.000000 1.000000 0.000000
vn 0.000000 1.000000 0.000000
vn 0.000000 1.000000 0.000000
vn 0.000000 0.000000 -1.000000
vn 0.000000 0.000000 -1.000000
vn 0.000000 0.000000 -1.000000
vn 0.000000 0.000000 -1.000000
vn 0.000000 -1.000000 0.000000
vn 0.000000 -1.000000 0.000000
vn 0.000000 -1.000000 0.000000
vn 0.000000 -1.000000 0.000000
vn 1.000000 0.000000 0.000000
vn 1.000000 0.000000 0.000000
vn 1.000000 0.000000 0.000000
vn 1.000000 0.000000 0.000000
vn -1.000000 0.000000 0.000000
vn -1.000000 0.000000 0.000000
vn -1.000000 0.000000 0.000000
vn -1.000000 0.000000 0.000000
vn 0.000000 0.000000 1.000000
vn -0.000000 0.000000 1.000000
vn -0.000000 0.000000 1.000000
vn 0.000000 0.000000 1.000000
vn -0.000000 0.000000 1.000000
vn -0.000000 0.000000 1.000000
vn 0.000000 0.000000 1.000000
vn 0.000000 0.000000 1.000000
vn 0.000000 1.000000 0.000000
vn 0.000000 1.000000 0.000000
vn 0.000000 1.000000 0.000000
vn 0.000000 1.000000 0.000000
vn -0.997842 0.000000 0.065657
vn -0.997842 0.000000 0.065657
vn -0.997842 0.000000 0.065657
vn -0.997842 0.000000 0.065657
vn 0.000000 -1.000000 -0.000000
vn 0.000000 -1.000000 -0.000000
vn 0.000000 -1.000000 -0.000000
vn 0.000000 -1.000000 -0.000000
vn 0.997842 0.000000 -0.065657
vn 0.997842 0.000000 -0.065657
vn 0.997842 0.000000 -0.065657
vn 0.997842 0.000000 -0.065657
s off
g pCube7
usemtl initialShadingGroup
f 13/33/1 14/34/2 15/35/3 16/36/4
f 3/1/5 4/2/6 6/3/7 5/4/8
f 5/37/9 6/38/10 8/39/11 7/40/12
f 7/5/13 8/6/14 2/7/15 1/8/16
f 2/17/17 8/18/18 6/19/19 4/20/20
f 7/21/21 1/22/22 3/23/23 5/24/24
s 1
f 1/41/25 2/42/26 10/43/27 9/44/28
f 2/42/26 4/45/29 11/46/30 10/43/27
f 4/45/29 3/47/31 12/48/32 11/46/30
f 3/47/31 1/41/25 9/44/28 12/48/32
s off
f 9/9/33 10/10/34 14/11/35 13/12/36
f 10/25/37 11/26/38 15/27/39 14/28/40
f 11/13/41 12/14/42 16/15/43 15/16/44
f 12/29/45 9/30/46 13/31/47 16/32/48
