# This file uses centimeters as units for non-parametric coordinates.

mtllib comp_roof_2.mtl
g default
v -0.800000 -0.100000 8.200000
v 8.200000 -0.100000 8.200000
v -0.800000 0.100000 8.200000
v 8.200000 0.100000 8.200000
v -0.800000 0.100000 -0.800000
v 8.200000 0.100000 -0.800000
v -0.800000 -0.100000 -0.800000
v 8.200000 -0.100000 -0.800000
v -0.665000 0.100000 8.200000
v -0.665000 0.100000 -0.800000
v -0.665000 -0.100000 -0.800000
v -0.665000 -0.100000 8.200000
v 8.067025 0.100000 8.200000
v 8.067025 0.100000 -0.800000
v 8.067025 -0.100000 -0.800000
v 8.067025 -0.100000 8.200000
v -0.800000 0.100000 8.065000
v -0.800000 -0.100000 8.065000
v -0.665000 -0.100000 8.065001
v 8.067025 -0.100000 8.065000
v 8.200000 -0.100000 8.065000
v 8.200000 0.100000 8.065000
v 8.067025 0.100000 8.065000
v -0.665000 0.100000 8.065000
v -0.800000 0.100000 -0.667025
v -0.800000 -0.100000 -0.667025
v -0.665000 -0.100000 -0.667025
v 8.067025 -0.100000 -0.667025
v 8.200000 -0.100000 -0.667025
v 8.200000 0.100000 -0.667025
v 8.067025 0.100000 -0.667025
v -0.665000 0.100000 -0.667025
v 7.641129 0.336046 7.639104
v -0.239104 0.336046 7.639104
v 7.641129 0.336046 -0.241129
v -0.239104 0.336046 -0.241129
vt 0.014553 0.001992
vt 0.021996 0.001992
vt 0.021996 0.009435
vt 0.014553 0.009435
vt 0.503395 0.001992
vt 0.503395 0.009435
vt 0.021996 0.490834
vt 0.014553 0.490834
vt 0.510726 0.001992
vt 0.510726 0.009435
vt 0.479915 0.032914
vt 0.045475 0.032914
vt 0.045475 0.467355
vt 0.021996 0.498165
vt 0.014553 0.498165
vt 0.510726 0.490834
vt 0.503395 0.490834
vt 0.479915 0.467355
vt 0.503395 0.498165
vt 0.510726 0.498165
vt 0.917522 0.509277
vt 0.910079 0.509277
vt 0.910079 0.501835
vt 0.917522 0.501835
vt 0.917522 0.990677
vt 0.910079 0.990677
vt 0.428679 0.509277
vt 0.428679 0.501835
vt 0.917522 0.998008
vt 0.910079 0.998008
vt 0.428679 0.990677
vt 0.421348 0.509277
vt 0.421348 0.501835
vt 0.428679 0.998008
vt 0.421348 0.990677
vt 0.421348 0.998008
vt 0.409092 0.998008
vt 0.409092 0.990565
vt 0.415708 0.990565
vt 0.415708 0.998008
vt 0.409092 0.509166
vt 0.415708 0.509166
vt 0.409092 0.501835
vt 0.415708 0.501835
vt 0.403452 0.990565
vt 0.403452 0.998008
vt 0.396836 0.998008
vt 0.396836 0.990565
vt 0.403452 0.509166
vt 0.396836 0.509166
vt 0.403452 0.501835
vt 0.396836 0.501835
vt 0.001831 0.498165
vt 0.001831 0.490723
vt 0.008447 0.490723
vt 0.008447 0.498165
vt 0.001831 0.009323
vt 0.008447 0.009323
vt 0.001831 0.001992
vt 0.008447 0.001992
vt 0.518042 0.498165
vt 0.518042 0.490723
vt 0.524657 0.490723
vt 0.524657 0.498165
vt 0.518042 0.009323
vt 0.524657 0.009323
vt 0.518042 0.001992
vt 0.524657 0.001992
vn -0.000003 0.000000 1.000000
vn -0.000000 0.000000 1.000000
vn -0.000000 0.000000 1.000000
vn -0.000003 0.000000 1.000000
vn -0.000000 1.000000 0.000000
vn 0.000000 1.000000 0.000000
vn -0.000000 1.000000 0.000000
vn -0.000000 1.000000 0.000000
vn -0.000005 0.000000 -1.000000
vn -0.000000 0.000000 -1.000000
vn -0.000000 0.000000 -1.000000
vn -0.000005 0.000000 -1.000000
vn -0.000000 -1.000000 0.000000
vn 0.000000 -1.000000 0.000000
vn 0.000000 -1.000000 0.000000
vn -0.000000 -1.000000 0.000000
vn 1.000000 0.000000 0.000000
vn 1.000000 -0.000002 0.000000
vn 1.000000 -0.000002 0.000000
vn 1.000000 0.000000 0.000000
vn -1.000000 -0.000001 0.000000
vn -1.000000 0.000000 0.000001
vn -1.000000 0.000000 0.000001
vn -1.000000 -0.000001 -0.000000
vn 0.000000 1.000000 0.000000
vn 0.000000 1.000000 0.000000
vn 0.000000 0.000000 -1.000000
vn 0.000000 0.000000 -1.000000
vn 0.000000 -1.000000 0.000000
vn 0.000000 -1.000000 0.000000
vn 0.000000 0.000000 1.000000
vn 0.000000 0.000000 1.000000
vn 0.000000 1.000000 0.000000
vn 0.000000 1.000000 0.000000
vn 0.000000 0.000000 -1.000000
vn 0.000000 0.000000 -1.000000
vn 0.000000 -1.000000 0.000000
vn 0.000000 -1.000000 0.000000
vn 0.000000 0.000000 1.000000
vn 0.000000 0.000000 1.000000
vn -1.000000 -0.000001 -0.000000
vn -1.000000 -0.000001 -0.000000
vn -0.000000 -1.000000 -0.000000
vn 0.000000 -1.000000 -0.000000
vn 0.000000 -1.000000 -0.000000
vn 0.000000 -1.000000 0.000000
vn 1.000000 -0.000002 0.000000
vn 1.000000 -0.000002 0.000000
vn 0.000000 1.000000 -0.000000
vn 0.000000 1.000000 -0.000000
vn 0.000000 1.000000 0.000000
vn 0.000000 1.000000 0.000000
vn 0.000000 1.000000 0.000000
vn 0.000000 1.000000 0.000000
vn -0.000000 1.000000 -0.000000
vn -0.000000 1.000000 -0.000000
vn -1.000000 0.000000 0.000000
vn -1.000000 0.000000 0.000000
vn -0.000000 -1.000000 -0.000000
vn 0.000000 -1.000000 -0.000000
vn 0.000000 -1.000000 -0.000000
vn 0.000000 -1.000000 0.000000
vn 1.000000 0.000000 0.000000
vn 1.000000 0.000000 0.000000
vn 0.000000 1.000000 0.000000
vn 0.000000 1.000000 -0.000000
vn 0.000000 1.000000 -0.000000
vn -0.000000 1.000000 -0.000000
vn 0.000000 0.874648 0.484759
vn 0.000000 0.874648 0.484759
vn 0.000000 0.874648 0.484759
vn 0.000000 0.874648 0.484759
vn 0.484759 0.874648 -0.000000
vn 0.484759 0.874648 -0.000000
vn 0.484759 0.874648 -0.000000
vn 0.484759 0.874648 -0.000000
vn 0.000000 0.874648 -0.484759
vn 0.000000 0.874648 -0.484759
vn 0.000000 0.874648 -0.484759
vn 0.000000 0.874648 -0.484759
vn -0.484759 0.874648 0.000000
vn -0.484759 0.874648 0.000000
vn -0.484759 0.874648 0.000000
vn -0.484759 0.874648 0.000000
s 1
g pCube4
usemtl initialShadingGroup
f 1/53/1 12/54/2 9/55/3 3/56/4
s 2
f 3/1/5 9/2/6 24/3/7 17/4/8
s 3
f 5/61/9 10/62/10 11/63/11 7/64/12
s 4
f 18/21/13 19/22/14 12/23/15 1/24/16
s 5
f 2/37/17 21/38/18 22/39/19 4/40/20
s 6
f 18/45/21 1/46/22 3/47/23 17/48/24
s 2
f 9/2/6 13/5/25 23/6/26 24/3/7
s 3
f 11/63/11 10/62/10 14/65/27 15/66/28
s 4
f 12/23/15 19/22/14 20/27/29 16/28/30
s 1
f 9/55/3 12/54/2 16/57/31 13/58/32
s 2
f 13/5/25 4/9/33 22/10/34 23/6/26
s 3
f 15/66/28 14/65/27 6/67/35 8/68/36
s 4
f 16/28/30 20/27/29 21/32/37 2/33/38
s 1
f 13/58/32 16/57/31 2/59/39 4/60/40
s 6
f 26/49/41 18/45/21 17/48/24 25/50/42
s 4
f 26/25/43 27/26/44 19/22/14 18/21/13
f 20/27/29 19/22/14 27/26/44 28/31/45
f 21/32/37 20/27/29 28/31/45 29/35/46
s 5
f 22/39/19 21/38/18 29/41/47 30/42/48
s 2
f 23/6/26 22/10/34 30/16/49 31/17/50
s off
f 34/12/51 33/11/52 35/18/53 36/13/54
s 2
f 17/4/8 24/3/7 32/7/55 25/8/56
s 6
f 7/51/57 26/49/41 25/50/42 5/52/58
s 4
f 7/29/59 11/30/60 27/26/44 26/25/43
f 28/31/45 27/26/44 11/30/60 15/34/61
f 29/35/46 28/31/45 15/34/61 8/36/62
s 5
f 30/42/48 29/41/47 8/43/63 6/44/64
s 2
f 31/17/50 30/16/49 6/20/65 14/19/66
f 32/7/55 31/17/50 14/19/66 10/14/67
f 25/8/56 32/7/55 10/14/67 5/15/68
s off
f 24/3/69 23/6/70 33/11/71 34/12/72
f 23/6/73 31/17/74 35/18/75 33/11/76
f 31/17/77 32/7/78 36/13/79 35/18/80
f 32/7/81 24/3/82 34/12/83 36/13/84
